<?xml version="1.0" encoding="utf-8"?>
<!-- Generator: Adobe Illustrator 22.0.1, SVG Export Plug-In . SVG Version: 6.00 Build 0)  -->
<svg version="1.1" id="Слой_1" xmlns="http://www.w3.org/2000/svg" xmlns:xlink="http://www.w3.org/1999/xlink" x="0px" y="0px"
	 viewBox="0 0 279.4 306.1" style="enable-background:new 0 0 279.4 306.1;" xml:space="preserve">
<style type="text/css">
	.st0{fill:#262424;}
	.st1{opacity:0.8;fill:#A50587;}
	.st2{opacity:0.8;fill:#4FAEE8;}
</style>
<path class="st0" d="M159.5,297.2c-15.9,0-29.6-6.2-38.4-17.5c-9.2-11.7-12-27.3-7.8-43.7c1-4,5.1-6.5,9.1-5.5c4,1,6.5,5.1,5.5,9.1
	c-3,11.9-1.1,22.8,5.1,30.8c5.9,7.6,15.4,11.8,26.6,11.8c4.1,0,7.5,3.4,7.5,7.5S163.7,297.2,159.5,297.2z"/>
<path class="st1" d="M62.4,21.6l172.2,99.6l-31.7,179.6l-36.1-27.2c-47.2-35.5-78.7-88-87.9-146.4L62.4,21.6z"/>
<path class="st0" d="M120.5,245.2c-0.6,0-1.2-0.1-1.8-0.2c-4-1-6.5-5.1-5.5-9.1l45.5-182.5c1-4,5.1-6.5,9.1-5.5s6.5,5.1,5.5,9.1
	l-45.5,182.5C127,243,123.9,245.2,120.5,245.2z"/>
<path class="st2" d="M6.3,52.7l228.2,68.6l-31.7,179.6L130.5,264c-46.5-23.7-81.2-65.5-96-115.6L6.3,52.7z"/>
<circle class="st0" cx="211.6" cy="61.5" r="7.9"/>
<path class="st0" d="M185.5,250.2c-7.2,0-13.7-3-17.8-8.3c-4.2-5.4-5.6-12.7-3.7-20.1c1-4,5.1-6.5,9.1-5.5c4,1,6.5,5.1,5.5,9.1
	c-0.7,2.9-0.4,5.5,1,7.2c1.3,1.6,3.4,2.5,6,2.5c7,0,14.7-6.2,16.5-13.4c1-4,5.1-6.5,9.1-5.5c4,1,6.5,5.1,5.5,9.1
	C213.1,239.4,199.4,250.2,185.5,250.2z"/>
<path class="st0" d="M251.2,62.8c-0.6,0-1.2-0.1-1.8-0.2c-4-1-6.5-5.1-5.5-9.1c2.3-9.3,0.9-17.9-3.9-24.1c-4.6-5.9-12-9.1-20.8-9.1
	c-19.9,0-41,16.9-46,36.9c-1,4-5.1,6.5-9.1,5.5c-4-1-6.5-5.1-5.5-9.1c6.8-27.1,33.3-48.3,60.5-48.3c13.5,0,25.1,5.3,32.6,14.9
	c7.8,10,10.2,23.1,6.7,37C257.7,60.5,254.6,62.8,251.2,62.8z"/>
<path class="st0" d="M240.7,105.2c-0.6,0-1.2-0.1-1.8-0.2c-4-1-6.5-5.1-5.5-9.1c3.8-15.1,18.6-27,33.8-27c4.1,0,7.5,3.4,7.5,7.5
	s-3.4,7.5-7.5,7.5c-8.4,0-17.2,7.1-19.3,15.6C247.1,102.9,244,105.2,240.7,105.2z"/>
<path class="st0" d="M267.2,84.1c-7.9,0-14.7-3.2-19.2-8.9c-4.5-5.8-6-13.7-4-21.7c1-4,5.1-6.5,9.1-5.5c4,1,6.5,5.1,5.5,9.1
	c-0.9,3.5-0.4,6.7,1.3,8.8c1.6,2,4.2,3.1,7.4,3.1c4.1,0,7.5,3.4,7.5,7.5S271.3,84.1,267.2,84.1z"/>
<path class="st0" d="M170.9,232.3c-0.6,0-1.2-0.1-1.8-0.2c-4-1-6.5-5.1-5.5-9.1l24.4-98c1-4,5.1-6.5,9.1-5.5c4,1,6.5,5.1,5.5,9.1
	l-24.4,98C177.3,230,174.3,232.3,170.9,232.3z"/>
<path class="st0" d="M209.3,231.2c-0.6,0-1.2-0.1-1.8-0.2c-4-1-6.5-5.1-5.5-9.1l31.4-126.1c1-4,5.1-6.5,9.1-5.5c4,1,6.5,5.1,5.5,9.1
	l-31.4,126.1C215.7,228.9,212.6,231.2,209.3,231.2z"/>
</svg>
